# xmcd CD database file
#
# Track frame offsets:
#	150
#	14773
#	29268
#	43813
#	57488
#	72002
#	85678
#	100583
#	115867
#	138138
#	149439
#	166399
#	180392
#	194081
#	207816
#	220405
#	233212
#	246769
#	263721
#	276341
#	294494
#
# Disc length: 4088 seconds
#
# Revision: 0
# Processed by: cddbd v1.5.2PL0 Copyright (c) Steve Scherf et al.
# Submitted via: CDex 1.50
#
DISCID=3b0ff615
DTITLE=Various Artist - Piano blues and boogie - Honky tonk train blues
DYEAR=2007
DGENRE=Blues
TTITLE0=Barrel house man - Will Ezell
TTITLE1=Honky tonk train blues - Meade Lux Lewis
TTITLE2=Pinetop's boogie woogie - Pinetop Smith
TTITLE3=Heifer dust - Will Ezell
TTITLE4=Slow drag - Cow Cow Davenport
TTITLE5=Henry Brown blues - Henry Brown
TTITLE6=N° 29 - Wesley Wallace
TTITLE7=Jab blues - Jabo Williams
TTITLE8=Boogie woogie prayer part 1 and 2 - Meade Lux Lewis - Albert Ammons - Pete Johnson
TTITLE9=Shout for joy - Albert Ammons
TTITLE10=Boogie woogie blues - Albert Ammons
TTITLE11=Let'em jump - Pete Johnson
TTITLE12=Janie's joys - Jimmy Yancey
TTITLE13=Cafe society rag - Meade Lux Lewis - Albert Ammons - Pete Johnson
TTITLE14=Boogie woogie - Pete Johnson
TTITLE15=Yancey stomp - Jimmy Yancey
TTITLE16=I don't know - Cripple Clarence Lofton
TTITLE17=Rising tide blues - Meade Lux Lewis
TTITLE18=Boogie woogie jump - Pete Johnson - Albert Ammons
TTITLE19=How long blues - Jimmy Yancey
TTITLE20=Yancey special - Jimmy Yancey
EXTD=YEAR: 2007
EXTT0=
EXTT1=
EXTT2=
EXTT3=
EXTT4=
EXTT5=
EXTT6=
EXTT7=
EXTT8=
EXTT9=
EXTT10=
EXTT11=
EXTT12=
EXTT13=
EXTT14=
EXTT15=
EXTT16=
EXTT17=
EXTT18=
EXTT19=
EXTT20=
PLAYORDER=
